{"title":"Bahar S01E42-43.HDTV.X264.ARI Greek Subs","uid":15453418,"size":737508556,"categoryP":"video","categoryS":"tv_shows","magnet":"?xt=urn:btih:b5b7b6c56da7c9efdc4411f5441a0b1a95a2b315&amp;dn=Bahar+S01E42-43.HDTV.X264.ARI+Greek+Subs&amp;tr=udp%3A%2F%2Ftracker.leechers-paradise.org%3A6969&amp;tr=udp%3A%2F%2Fzer0day.ch%3A1337&amp;tr=udp%3A%2F%2Fopen.demonii.com%3A1337&amp;tr=udp%3A%2F%2Ftracker.coppersurfer.tk%3A6969&amp;tr=udp%3A%2F%2Fexodus.desync.com%3A6969","seeders":2,"leechers":0,"uploader":"Aris2015","files":1,"time":1469964001,"description":"H Seira Bahar 8a anevi mekri to ep 45 kai telos apo mena, telika den akseizi o kopos gia tin Bahar exei liga downloads, kano 4 ores convert (to cpu 100% sto pc) gia to tpt, eukaristo. I ligi fili pou to katebasoun apo mena, asto to katebasoun apo ton anonymous apo to ep 45 ke meta.\r\n\r\n\r\nGeneral\r\nComplete name               : Bahar.S01E42-43.HDTV.X264.ARI.mp4\r\nFormat                      : MPEG-4\r\nFormat profile              : Base Media\r\nCodec ID                    : isom (isom/iso2/avc1/mp41)\r\nFile size                   : 703 MiB\r\nDuration                    : 1h 26mn\r\nOverall bit rate mode       : Variable\r\nOverall bit rate            : 1 133 Kbps\r\nWriting application         : Lavf57.41.100\r\n\r\nVideo\r\nID                          : 1\r\nFormat                      : AVC\r\nFormat/Info                 : Advanced Video Codec\r\nFormat profile              :   \r\nFormat settings, CABAC      : Yes\r\nFormat settings, ReFrames   : 5 frames\r\nCodec ID                    : avc1\r\nCodec ID/Info               : Advanced Video Coding\r\nDuration                    : 1h 26mn\r\nBit rate mode               : Variable\r\nBit rate                    : 1 000 Kbps\r\nMaximum bit rate            : 17.5 Mbps\r\nWidth                       : 720 pixels\r\nHeight                      : 404 pixels\r\nDisplay aspect ratio        : 16:9\r\nOriginal display aspect rat : 16:9\r\nFrame rate mode             : Constant\r\nFrame rate                  : 25.000 fps\r\nColor space                 : YUV\r\nChroma subsampling          : 4:2:0\r\nBit depth                   : 8 bits\r\nScan type                   : Progressive\r\nBits/(Pixel*Frame)          : 0.138\r\nStream size                 : 620 MiB (88%)\r\nWriting library             : x264 core 148 r2643\r\n\r\n\r\nAudio\r\nID                          : 2\r\nFormat                      : AAC\r\nFormat/Info                 : Advanced Audio Codec\r\nFormat profile              : LC\r\nCodec ID                    : 40\r\nDuration                    : 1h 26mn\r\nDuration_LastFrame          : -19ms\r\nBit rate mode               : Constant\r\nBit rate                    : 128 Kbps\r\nChannel(s)                  : 2 channels\r\nChannel positions           : Front: L R\r\nSampling rate               : 48.0 KHz\r\nFrame rate                  : 46.875 fps (1024 spf)\r\nCompression mode            : Lossy\r\nStream size                 : 79.4 MiB (11%)\r\nLanguage                    : Turkish\r\nDefault                     : Yes","torrent":{"xt":"urn:btih:b5b7b6c56da7c9efdc4411f5441a0b1a95a2b315","amp;dn":"Bahar+S01E42-43.HDTV.X264.ARI+Greek+Subs","amp;tr":["udp%3A%2F%2Ftracker.leechers-paradise.org%3A6969","udp%3A%2F%2Fzer0day.ch%3A1337","udp%3A%2F%2Fopen.demonii.com%3A1337","udp%3A%2F%2Ftracker.coppersurfer.tk%3A6969","udp%3A%2F%2Fexodus.desync.com%3A6969"],"infoHash":"b5b7b6c56da7c9efdc4411f5441a0b1a95a2b315","infoHashBuffer":{"type":"Buffer","data":[181,183,182,197,109,167,201,239,220,68,17,245,68,26,11,26,149,162,179,21]},"announce":[],"urlList":[]}}